G04 #@! TF.FileFunction,Copper,L1,Top,Signal*
%FSLAX46Y46*%
G04 Gerber Fmt 4.6, Leading zero omitted, Abs format (unit mm)*
G04 Created by KiCad (PCBNEW 4.0.7) date 02/02/18 17:28:41*
%MOMM*%
%LPD*%
G01*
G04 APERTURE LIST*
%ADD10C,0.100000*%
%ADD11R,0.300000X1.600000*%
%ADD12C,0.600000*%
%ADD13C,0.250000*%
%ADD14C,0.254000*%
G04 APERTURE END LIST*
D10*
D11*
X137500000Y-111350000D03*
X137500000Y-114950000D03*
X138000000Y-111350000D03*
X138000000Y-114950000D03*
X138500000Y-111350000D03*
X138500000Y-114950000D03*
X139000000Y-111350000D03*
X139000000Y-114950000D03*
X139500000Y-111350000D03*
X139500000Y-114950000D03*
X140000000Y-111350000D03*
X140000000Y-114950000D03*
X140500000Y-111350000D03*
X140500000Y-114950000D03*
X141000000Y-111350000D03*
X141000000Y-114950000D03*
X141500000Y-111350000D03*
X141500000Y-114950000D03*
X142000000Y-111350000D03*
X142000000Y-114950000D03*
D12*
X138400000Y-113400000D03*
X137500000Y-113400000D03*
X138800000Y-112700000D03*
X139300000Y-113400000D03*
X140500000Y-113100000D03*
D13*
X138000000Y-114950000D02*
X138000000Y-113800000D01*
X138000000Y-113800000D02*
X138400000Y-113400000D01*
X137500000Y-114950000D02*
X137500000Y-113400000D01*
X138500000Y-111350000D02*
X138500000Y-112400000D01*
X138500000Y-112400000D02*
X138800000Y-112700000D01*
X139000000Y-114950000D02*
X139000000Y-113700000D01*
X139000000Y-113700000D02*
X139300000Y-113400000D01*
X139500000Y-111350000D02*
X139500000Y-112100000D01*
X139500000Y-112100000D02*
X140500000Y-113100000D01*
X139500000Y-114950000D02*
X139500000Y-114100000D01*
X139500000Y-114100000D02*
X140500000Y-113100000D01*
X140000000Y-114950000D02*
X140000000Y-113600000D01*
X140000000Y-113600000D02*
X140500000Y-113100000D01*
X141000000Y-114950000D02*
X141000000Y-113600000D01*
X141000000Y-113600000D02*
X140500000Y-113100000D01*
X140000000Y-111350000D02*
X140000000Y-112600000D01*
X140000000Y-112600000D02*
X140500000Y-113100000D01*
X140500000Y-114950000D02*
X140500000Y-113100000D01*
X139500000Y-111350000D02*
X140000000Y-111350000D01*
X140000000Y-114950000D02*
X139500000Y-114950000D01*
X140500000Y-114950000D02*
X140000000Y-114950000D01*
X141000000Y-114950000D02*
X140500000Y-114950000D01*
D14*
G36*
X140219830Y-112771080D02*
X140233750Y-112785000D01*
X140276309Y-112785000D01*
X140280335Y-112783332D01*
X140350000Y-112797440D01*
X140650000Y-112797440D01*
X140753671Y-112777933D01*
X140850000Y-112797440D01*
X141150000Y-112797440D01*
X141253671Y-112777933D01*
X141350000Y-112797440D01*
X141650000Y-112797440D01*
X141753671Y-112777933D01*
X141850000Y-112797440D01*
X142115000Y-112797440D01*
X142115000Y-113502560D01*
X141850000Y-113502560D01*
X141746329Y-113522067D01*
X141650000Y-113502560D01*
X141350000Y-113502560D01*
X141278676Y-113515981D01*
X141276309Y-113515000D01*
X141233750Y-113515000D01*
X141222129Y-113526621D01*
X141114683Y-113546838D01*
X141011354Y-113613329D01*
X141009698Y-113611673D01*
X140776309Y-113515000D01*
X140723691Y-113515000D01*
X140500000Y-113607656D01*
X140276309Y-113515000D01*
X140234901Y-113515000D01*
X140235162Y-113214833D01*
X140093117Y-112871057D01*
X140007210Y-112785000D01*
X140127002Y-112785000D01*
X140127002Y-112752282D01*
X140219830Y-112771080D01*
X140219830Y-112771080D01*
G37*
X140219830Y-112771080D02*
X140233750Y-112785000D01*
X140276309Y-112785000D01*
X140280335Y-112783332D01*
X140350000Y-112797440D01*
X140650000Y-112797440D01*
X140753671Y-112777933D01*
X140850000Y-112797440D01*
X141150000Y-112797440D01*
X141253671Y-112777933D01*
X141350000Y-112797440D01*
X141650000Y-112797440D01*
X141753671Y-112777933D01*
X141850000Y-112797440D01*
X142115000Y-112797440D01*
X142115000Y-113502560D01*
X141850000Y-113502560D01*
X141746329Y-113522067D01*
X141650000Y-113502560D01*
X141350000Y-113502560D01*
X141278676Y-113515981D01*
X141276309Y-113515000D01*
X141233750Y-113515000D01*
X141222129Y-113526621D01*
X141114683Y-113546838D01*
X141011354Y-113613329D01*
X141009698Y-113611673D01*
X140776309Y-113515000D01*
X140723691Y-113515000D01*
X140500000Y-113607656D01*
X140276309Y-113515000D01*
X140234901Y-113515000D01*
X140235162Y-113214833D01*
X140093117Y-112871057D01*
X140007210Y-112785000D01*
X140127002Y-112785000D01*
X140127002Y-112752282D01*
X140219830Y-112771080D01*
M02*
